<mxfile host="Electron" agent="Mozilla/5.0 (Windows NT 10.0; Win64; x64) AppleWebKit/537.36 (KHTML, like Gecko) draw.io/28.1.2 Chrome/138.0.7204.243 Electron/37.4.0 Safari/537.36" version="28.1.2">
  <diagram name="PÃ¡gina-1" id="mKRgk-MOIIh3a1-Oo0M7">
    <mxGraphModel dx="1426" dy="841" grid="1" gridSize="10" guides="1" tooltips="1" connect="1" arrows="1" fold="1" page="1" pageScale="1" pageWidth="4681" pageHeight="3300" math="0" shadow="0">
      <root>
        <mxCell id="0" />
        <mxCell id="1" parent="0" />
        <mxCell id="uGxOiLyyqkjh-QIXpocp-1" value="Quarto" style="rounded=1;arcSize=10;whiteSpace=wrap;html=1;align=center;" vertex="1" parent="1">
          <mxGeometry x="1190" y="320" width="100" height="40" as="geometry" />
        </mxCell>
        <mxCell id="uGxOiLyyqkjh-QIXpocp-5" value="" style="edgeStyle=orthogonalEdgeStyle;rounded=0;orthogonalLoop=1;jettySize=auto;html=1;" edge="1" parent="1" source="uGxOiLyyqkjh-QIXpocp-2" target="uGxOiLyyqkjh-QIXpocp-4">
          <mxGeometry relative="1" as="geometry" />
        </mxCell>
        <mxCell id="uGxOiLyyqkjh-QIXpocp-2" value="Hospede" style="rounded=1;arcSize=10;whiteSpace=wrap;html=1;align=center;" vertex="1" parent="1">
          <mxGeometry x="330" y="320" width="100" height="40" as="geometry" />
        </mxCell>
        <mxCell id="uGxOiLyyqkjh-QIXpocp-8" value="" style="edgeStyle=orthogonalEdgeStyle;rounded=0;orthogonalLoop=1;jettySize=auto;html=1;" edge="1" parent="1" source="uGxOiLyyqkjh-QIXpocp-3" target="uGxOiLyyqkjh-QIXpocp-7">
          <mxGeometry relative="1" as="geometry" />
        </mxCell>
        <mxCell id="uGxOiLyyqkjh-QIXpocp-3" value="Reserva" style="whiteSpace=wrap;html=1;align=center;" vertex="1" parent="1">
          <mxGeometry x="760" y="320" width="100" height="40" as="geometry" />
        </mxCell>
        <mxCell id="uGxOiLyyqkjh-QIXpocp-6" style="edgeStyle=orthogonalEdgeStyle;rounded=0;orthogonalLoop=1;jettySize=auto;html=1;" edge="1" parent="1" source="uGxOiLyyqkjh-QIXpocp-4" target="uGxOiLyyqkjh-QIXpocp-3">
          <mxGeometry relative="1" as="geometry" />
        </mxCell>
        <mxCell id="uGxOiLyyqkjh-QIXpocp-4" value="faz" style="rhombus;whiteSpace=wrap;html=1;rounded=1;arcSize=10;" vertex="1" parent="1">
          <mxGeometry x="560" y="300" width="80" height="80" as="geometry" />
        </mxCell>
        <mxCell id="uGxOiLyyqkjh-QIXpocp-9" style="edgeStyle=orthogonalEdgeStyle;rounded=0;orthogonalLoop=1;jettySize=auto;html=1;entryX=0;entryY=0.5;entryDx=0;entryDy=0;" edge="1" parent="1" source="uGxOiLyyqkjh-QIXpocp-7" target="uGxOiLyyqkjh-QIXpocp-1">
          <mxGeometry relative="1" as="geometry" />
        </mxCell>
        <mxCell id="uGxOiLyyqkjh-QIXpocp-7" value="seleciona" style="rhombus;whiteSpace=wrap;html=1;" vertex="1" parent="1">
          <mxGeometry x="990" y="300" width="80" height="80" as="geometry" />
        </mxCell>
        <mxCell id="uGxOiLyyqkjh-QIXpocp-10" value="1" style="text;html=1;align=center;verticalAlign=middle;resizable=0;points=[];autosize=1;strokeColor=none;fillColor=none;" vertex="1" parent="1">
          <mxGeometry x="420" y="320" width="30" height="30" as="geometry" />
        </mxCell>
        <mxCell id="uGxOiLyyqkjh-QIXpocp-11" value="N" style="text;html=1;align=center;verticalAlign=middle;resizable=0;points=[];autosize=1;strokeColor=none;fillColor=none;" vertex="1" parent="1">
          <mxGeometry x="730" y="320" width="30" height="30" as="geometry" />
        </mxCell>
        <mxCell id="uGxOiLyyqkjh-QIXpocp-12" value="N" style="text;html=1;align=center;verticalAlign=middle;resizable=0;points=[];autosize=1;strokeColor=none;fillColor=none;" vertex="1" parent="1">
          <mxGeometry x="855" y="318" width="30" height="30" as="geometry" />
        </mxCell>
        <mxCell id="uGxOiLyyqkjh-QIXpocp-13" value="1" style="text;html=1;align=center;verticalAlign=middle;resizable=0;points=[];autosize=1;strokeColor=none;fillColor=none;" vertex="1" parent="1">
          <mxGeometry x="1160" y="318" width="30" height="30" as="geometry" />
        </mxCell>
        <mxCell id="uGxOiLyyqkjh-QIXpocp-15" style="edgeStyle=orthogonalEdgeStyle;rounded=0;orthogonalLoop=1;jettySize=auto;html=1;entryX=0.5;entryY=0;entryDx=0;entryDy=0;" edge="1" parent="1" source="uGxOiLyyqkjh-QIXpocp-14" target="uGxOiLyyqkjh-QIXpocp-2">
          <mxGeometry relative="1" as="geometry" />
        </mxCell>
        <mxCell id="uGxOiLyyqkjh-QIXpocp-14" value="cpf/passaporte" style="ellipse;whiteSpace=wrap;html=1;align=center;fontStyle=4" vertex="1" parent="1">
          <mxGeometry x="330" y="180" width="100" height="40" as="geometry" />
        </mxCell>
        <mxCell id="uGxOiLyyqkjh-QIXpocp-24" style="edgeStyle=orthogonalEdgeStyle;rounded=0;orthogonalLoop=1;jettySize=auto;html=1;entryX=0.25;entryY=0;entryDx=0;entryDy=0;" edge="1" parent="1" source="uGxOiLyyqkjh-QIXpocp-17" target="uGxOiLyyqkjh-QIXpocp-2">
          <mxGeometry relative="1" as="geometry" />
        </mxCell>
        <mxCell id="uGxOiLyyqkjh-QIXpocp-17" value="nome" style="ellipse;whiteSpace=wrap;html=1;align=center;" vertex="1" parent="1">
          <mxGeometry x="230" y="220" width="100" height="40" as="geometry" />
        </mxCell>
        <mxCell id="uGxOiLyyqkjh-QIXpocp-23" style="edgeStyle=orthogonalEdgeStyle;rounded=0;orthogonalLoop=1;jettySize=auto;html=1;entryX=0.5;entryY=0;entryDx=0;entryDy=0;" edge="1" parent="1" source="uGxOiLyyqkjh-QIXpocp-20" target="uGxOiLyyqkjh-QIXpocp-1">
          <mxGeometry relative="1" as="geometry" />
        </mxCell>
        <mxCell id="uGxOiLyyqkjh-QIXpocp-20" value="tipo" style="ellipse;whiteSpace=wrap;html=1;align=center;" vertex="1" parent="1">
          <mxGeometry x="1190" y="180" width="100" height="40" as="geometry" />
        </mxCell>
        <mxCell id="uGxOiLyyqkjh-QIXpocp-22" style="edgeStyle=orthogonalEdgeStyle;rounded=0;orthogonalLoop=1;jettySize=auto;html=1;entryX=0.75;entryY=0;entryDx=0;entryDy=0;" edge="1" parent="1" source="uGxOiLyyqkjh-QIXpocp-21" target="uGxOiLyyqkjh-QIXpocp-1">
          <mxGeometry relative="1" as="geometry" />
        </mxCell>
        <mxCell id="uGxOiLyyqkjh-QIXpocp-21" value="numero" style="ellipse;whiteSpace=wrap;html=1;align=center;" vertex="1" parent="1">
          <mxGeometry x="1290" y="220" width="100" height="40" as="geometry" />
        </mxCell>
        <mxCell id="uGxOiLyyqkjh-QIXpocp-27" style="edgeStyle=orthogonalEdgeStyle;rounded=0;orthogonalLoop=1;jettySize=auto;html=1;entryX=0.25;entryY=0;entryDx=0;entryDy=0;" edge="1" parent="1" source="uGxOiLyyqkjh-QIXpocp-26" target="uGxOiLyyqkjh-QIXpocp-1">
          <mxGeometry relative="1" as="geometry" />
        </mxCell>
        <mxCell id="uGxOiLyyqkjh-QIXpocp-26" value="capacidade" style="ellipse;whiteSpace=wrap;html=1;align=center;" vertex="1" parent="1">
          <mxGeometry x="1090" y="220" width="100" height="40" as="geometry" />
        </mxCell>
        <mxCell id="uGxOiLyyqkjh-QIXpocp-35" style="edgeStyle=orthogonalEdgeStyle;rounded=0;orthogonalLoop=1;jettySize=auto;html=1;entryX=0.75;entryY=0;entryDx=0;entryDy=0;" edge="1" parent="1" source="uGxOiLyyqkjh-QIXpocp-29" target="uGxOiLyyqkjh-QIXpocp-3">
          <mxGeometry relative="1" as="geometry" />
        </mxCell>
        <mxCell id="uGxOiLyyqkjh-QIXpocp-29" value="data_entrada" style="ellipse;whiteSpace=wrap;html=1;align=center;" vertex="1" parent="1">
          <mxGeometry x="860" y="220" width="100" height="40" as="geometry" />
        </mxCell>
        <mxCell id="uGxOiLyyqkjh-QIXpocp-32" style="edgeStyle=orthogonalEdgeStyle;rounded=0;orthogonalLoop=1;jettySize=auto;html=1;entryX=0.25;entryY=0;entryDx=0;entryDy=0;" edge="1" parent="1" source="uGxOiLyyqkjh-QIXpocp-31" target="uGxOiLyyqkjh-QIXpocp-3">
          <mxGeometry relative="1" as="geometry" />
        </mxCell>
        <mxCell id="uGxOiLyyqkjh-QIXpocp-31" value="data_saida" style="ellipse;whiteSpace=wrap;html=1;align=center;" vertex="1" parent="1">
          <mxGeometry x="660" y="220" width="100" height="40" as="geometry" />
        </mxCell>
        <mxCell id="uGxOiLyyqkjh-QIXpocp-34" style="edgeStyle=orthogonalEdgeStyle;rounded=0;orthogonalLoop=1;jettySize=auto;html=1;entryX=0.5;entryY=0;entryDx=0;entryDy=0;" edge="1" parent="1" source="uGxOiLyyqkjh-QIXpocp-33" target="uGxOiLyyqkjh-QIXpocp-3">
          <mxGeometry relative="1" as="geometry" />
        </mxCell>
        <mxCell id="uGxOiLyyqkjh-QIXpocp-33" value="id_reserva" style="ellipse;whiteSpace=wrap;html=1;align=center;" vertex="1" parent="1">
          <mxGeometry x="760" y="180" width="100" height="40" as="geometry" />
        </mxCell>
        <mxCell id="uGxOiLyyqkjh-QIXpocp-37" style="edgeStyle=orthogonalEdgeStyle;rounded=0;orthogonalLoop=1;jettySize=auto;html=1;entryX=0.5;entryY=1;entryDx=0;entryDy=0;" edge="1" parent="1" source="uGxOiLyyqkjh-QIXpocp-36" target="uGxOiLyyqkjh-QIXpocp-3">
          <mxGeometry relative="1" as="geometry" />
        </mxCell>
        <mxCell id="uGxOiLyyqkjh-QIXpocp-36" value="forma_pagamento" style="ellipse;whiteSpace=wrap;html=1;align=center;" vertex="1" parent="1">
          <mxGeometry x="760" y="440" width="100" height="40" as="geometry" />
        </mxCell>
      </root>
    </mxGraphModel>
  </diagram>
</mxfile>
